<?xml version="1.0" standalone="no"?>
<!DOCTYPE svg PUBLIC "-//W3C//DTD SVG 20010904//EN"
 "http://www.w3.org/TR/2001/REC-SVG-20010904/DTD/svg10.dtd">
<svg version="1.0" xmlns="http://www.w3.org/2000/svg"
 width="160pt" height="100pt" viewBox="0 0 594.000000 368.000000"
 preserveAspectRatio="xMidYMid meet">

<g transform="translate(0.000000,368.000000) scale(0.100000,-0.100000)"
fill="#FFFFFF" stroke="none">
<path d="M1595 2404 c-161 -21 -274 -73 -375 -174 -189 -188 -230 -445 -109
-690 88 -178 255 -294 458 -319 78 -10 168 -3 174 13 3 8 -21 10 -84 8 -49 -2
-114 2 -144 8 -152 31 -313 159 -383 303 -46 94 -62 160 -62 255 0 148 55 285
157 393 113 120 250 179 412 179 51 0 81 4 76 9 -12 11 -80 20 -120 15z"/>
<path d="M1520 2354 c-215 -46 -389 -225 -431 -442 -15 -77 -7 -208 17 -277
41 -119 140 -242 240 -301 106 -62 248 -95 348 -80 l46 7 0 47 0 47 -108 0
c-103 0 -110 1 -185 37 -165 79 -267 241 -267 423 1 247 205 455 449 455 36 0
71 4 76 8 14 10 17 32 5 32 -7 0 -7 6 0 20 8 14 8 20 0 20 -6 0 -8 5 -5 10 9
15 -107 11 -185 -6z"/>
<path d="M1510 2211 c-63 -20 -97 -40 -159 -94 -91 -77 -132 -172 -132 -303 0
-203 110 -349 310 -410 46 -14 205 -19 185 -6 -6 4 -15 23 -18 42 -15 74 -48
158 -70 179 -13 12 -39 24 -59 28 -42 6 -93 -20 -170 -87 l-48 -43 -22 21
c-12 11 -30 34 -40 51 l-17 30 71 46 c100 65 119 88 119 145 0 43 -4 51 -47
92 -27 24 -67 55 -90 68 -24 13 -43 31 -43 40 0 9 15 34 33 55 l33 38 34 -30
c57 -49 127 -93 157 -99 77 -15 135 63 160 219 l6 37 -69 -1 c-38 0 -94 -8
-124 -18z"/>
<path d="M2507 2038 c2 -5 15 -8 28 -8 14 0 29 -9 35 -20 12 -23 10 -373 -2
-386 -4 -4 -25 -10 -45 -14 -26 -5 0 -8 81 -9 116 -1 118 -1 96 17 -25 20 -26
32 -20 252 4 141 9 157 52 163 18 2 -12 5 -67 6 -55 1 -114 3 -132 4 -17 1
-29 -1 -26 -5z m126 -21 c-3 -5 4 -6 16 -2 21 6 22 4 20 -39 -2 -25 -6 -43 -9
-41 -4 2 -16 -2 -26 -10 -18 -13 -18 -14 6 -9 22 5 23 4 7 -6 -9 -6 -15 -15
-12 -21 3 -5 0 -6 -8 -3 -8 3 -18 1 -21 -4 -8 -14 18 -22 35 -11 24 15 35 9
14 -7 -11 -8 -20 -20 -20 -26 0 -6 -6 -13 -14 -16 -8 -3 -11 0 -7 7 5 7 1 9
-11 4 -16 -6 -17 -5 -3 12 9 11 10 16 3 11 -17 -10 -17 26 -1 42 9 9 9 12 -2
12 -9 0 -5 9 11 27 13 15 16 21 6 14 -9 -8 -20 -11 -24 -7 -4 3 2 13 13 21 16
13 16 14 2 9 -10 -3 -18 -3 -18 1 0 4 8 14 18 21 16 12 16 12 -2 11 -10 -1
-21 3 -23 9 -2 6 9 11 26 11 17 0 28 -5 24 -10z m35 -201 c2 -15 0 -35 -4 -44
-4 -10 -6 -40 -5 -69 3 -50 1 -53 -31 -73 -38 -23 -53 -26 -41 -7 4 6 8 21 8
32 0 11 4 26 8 33 5 6 4 12 -2 12 -10 0 -10 18 2 37 4 6 1 14 -5 16 -10 4 -9
8 2 16 12 8 12 11 1 11 -10 0 -11 3 -2 14 9 11 9 15 -1 20 -7 3 -4 4 7 1 26
-6 50 9 40 25 -5 8 -3 11 6 8 8 -2 15 -17 17 -32z m5 -188 c3 -8 -5 -14 -20
-14 -19 -2 -22 1 -12 12 14 17 25 18 32 2z"/>
<path d="M2619 1653 c-13 -15 -12 -15 9 -4 23 12 28 21 13 21 -5 0 -15 -7 -22
-17z"/>
<path d="M4018 2043 c-17 -3 -28 -12 -32 -28 -3 -13 -9 -31 -12 -42 -6 -16 -5
-16 9 2 l16 20 1 -20 c1 -11 3 -60 4 -110 5 -126 3 -120 21 -105 8 7 15 9 15
5 0 -5 9 0 20 10 20 18 20 17 20 -29 0 -33 -5 -48 -16 -53 -13 -5 -13 -7 -2
-14 11 -7 10 -11 -2 -20 -13 -9 -12 -10 3 -5 19 6 24 -10 5 -17 -10 -4 -10 -6
0 -6 24 -2 12 -21 -14 -21 -16 0 -23 4 -18 12 4 7 3 8 -4 4 -7 -4 -20 -9 -29
-11 -98 -22 -76 -25 137 -14 l45 2 -45 6 -45 6 -3 93 c-2 77 -5 92 -19 92 -9
0 -25 -7 -35 -17 -10 -9 -18 -11 -18 -5 0 18 40 40 61 35 18 -5 19 1 20 83 1
49 1 97 0 106 -2 11 10 23 31 32 l33 14 -60 0 c-33 -1 -72 -3 -87 -5z m72 -88
c0 -48 -12 -75 -34 -75 -5 0 -1 9 9 20 10 11 13 20 7 20 -7 0 -12 -5 -12 -11
0 -5 -5 -7 -12 -3 -6 4 -8 3 -5 -3 4 -6 1 -13 -7 -16 -18 -7 -15 31 4 44 11 8
9 9 -10 4 -24 -6 -24 -5 -6 9 17 14 18 16 3 16 -9 0 -17 5 -17 10 0 6 6 10 13
10 8 0 7 4 -3 10 -13 9 -13 12 3 25 15 10 24 11 43 3 21 -10 24 -18 24 -63z
m-46 -86 c-4 -7 -1 -10 7 -7 8 3 19 -1 26 -8 15 -14 17 -28 4 -20 -5 3 -20 -3
-34 -14 -29 -23 -42 -26 -30 -7 12 20 12 37 0 37 -7 0 -3 7 7 15 24 18 30 19
20 4z"/>
<path d="M4045 2000 c-3 -6 1 -7 9 -4 18 7 21 14 7 14 -6 0 -13 -4 -16 -10z"/>
<path d="M4060 1980 c-9 -6 -10 -10 -3 -10 6 0 15 5 18 10 8 12 4 12 -15 0z"/>
<path d="M4033 1845 c0 -7 6 -11 14 -8 7 3 13 6 13 8 0 2 -6 5 -13 8 -8 3 -14
-1 -14 -8z"/>
<path d="M3627 2033 c51 -10 60 -39 67 -224 9 -191 8 -194 -55 -209 -27 -7
-19 -8 39 -8 64 1 92 10 61 20 -17 6 -28 81 -34 238 -5 132 -4 142 9 115 9
-16 15 -38 16 -47 0 -9 4 -19 9 -22 5 -4 12 -25 16 -49 4 -23 20 -67 35 -97
15 -30 35 -77 45 -103 19 -51 30 -51 40 -2 5 29 5 29 -5 5 -9 -19 -13 -22 -20
-10 -5 8 -7 17 -4 21 2 4 -2 10 -8 13 -10 3 -8 9 6 20 10 8 15 19 11 25 -3 6
1 11 10 11 11 0 14 -7 11 -25 -5 -29 10 -34 19 -6 3 11 -3 35 -15 55 -25 45
-90 236 -90 265 0 20 -5 21 -92 20 -51 -1 -83 -4 -71 -6z m113 -27 c0 -11 -19
-15 -25 -6 -3 5 1 10 9 10 9 0 16 -2 16 -4z m56 -72 c4 -24 1 -33 -12 -38 -10
-4 -21 -1 -26 6 -10 17 -10 28 1 28 5 0 11 7 15 15 4 12 2 13 -13 5 -30 -15
-36 17 -9 40 22 18 23 18 31 -3 4 -11 10 -35 13 -53z m19 -65 c-4 -5 0 -9 7
-10 10 0 10 -2 1 -6 -10 -3 -9 -8 3 -20 8 -9 13 -21 10 -29 -3 -7 0 -15 7 -18
7 -2 5 -5 -5 -5 -9 -1 -20 -6 -23 -11 -4 -7 3 -9 20 -6 23 4 25 3 14 -10 -10
-12 -9 -13 7 -8 16 5 16 4 4 -5 -8 -6 -15 -16 -15 -22 0 -7 -6 -14 -14 -17 -8
-3 -11 0 -7 6 3 6 1 16 -6 24 -14 15 -21 33 -22 61 0 9 -5 17 -10 17 -5 0 -6
3 -3 7 4 3 2 12 -5 20 -8 10 -7 18 8 32 19 18 40 18 29 0z"/>
<path d="M1657 1949 c-32 -19 -17 -69 22 -69 7 0 6 69 -1 76 -2 1 -11 -2 -21
-7z"/>
<path d="M1522 1908 c-23 -23 -7 -68 25 -68 9 0 13 14 13 40 0 41 -14 52 -38
28z"/>
<path d="M3073 1880 c-34 -20 -41 -34 -23 -45 6 -4 7 -11 4 -17 -4 -7 -2 -8 4
-4 7 4 12 0 13 -11 1 -18 20 30 21 54 2 15 53 34 73 27 8 -3 17 -14 20 -25 7
-22 21 -25 28 -6 3 7 14 1 31 -18 14 -16 24 -36 21 -42 -2 -7 0 -13 5 -13 6 0
10 -11 10 -25 0 -14 -3 -25 -7 -25 -5 0 -9 -12 -9 -28 -1 -26 -1 -25 14 8 12
28 12 43 3 77 -13 52 -34 74 -89 96 -55 22 -80 21 -119 -3z m4 -35 c0 -17 -13
-20 -21 -6 -4 5 0 12 6 14 7 3 13 6 14 6 0 1 1 -6 1 -14z"/>
<path d="M3440 1883 c-8 -3 -28 -17 -45 -31 -69 -57 -87 -155 -38 -213 29 -34
78 -59 115 -59 21 0 20 2 -9 20 -18 11 -34 27 -34 35 -2 24 -4 29 -12 43 -5 7
-7 35 -6 62 2 28 -2 55 -8 61 -7 7 -10 0 -8 -23 2 -35 -19 -68 -42 -68 -20 0
-15 16 10 29 l22 11 -22 -6 c-17 -4 -23 -1 -23 10 0 9 5 16 10 16 6 0 10 9 10
20 0 18 13 24 45 22 6 -1 17 13 25 31 12 25 22 33 47 35 44 4 63 -28 33 -58
-31 -31 -22 -55 20 -55 32 0 35 3 38 33 6 59 -68 108 -128 85z m116 -80 c-1
-19 -7 -27 -23 -29 -28 -5 -32 30 -5 45 26 15 29 14 28 -16z m-158 -150 c-2
-9 -9 -18 -16 -21 -8 -2 -10 2 -5 14 4 11 3 15 -5 10 -6 -3 -13 -3 -16 2 -2 4
7 9 20 10 19 1 25 -2 22 -15z m12 -33 c0 -5 -5 -10 -11 -10 -5 0 -7 5 -4 10 3
6 8 10 11 10 2 0 4 -4 4 -10z"/>
<path d="M4542 1876 c22 -11 23 -17 25 -134 2 -119 2 -123 -20 -132 -15 -6 1
-9 58 -8 44 0 73 2 64 5 -9 2 -19 18 -23 35 -11 56 -6 172 8 200 20 38 4 48
-73 47 -55 -1 -60 -3 -39 -13z m118 -13 c0 -3 -7 -3 -15 1 -9 3 -15 0 -15 -9
0 -7 -10 -17 -21 -20 -16 -6 -18 -9 -8 -15 7 -5 17 -6 22 -3 11 7 6 -58 -6
-74 -5 -7 -15 -13 -21 -13 -18 0 -15 53 3 68 15 12 14 13 0 9 -27 -9 -17 43
11 58 22 12 50 10 50 -2z m-41 -170 c-9 -11 -10 -14 -1 -9 8 5 12 0 12 -13 0
-12 -3 -21 -7 -22 -5 0 -16 -2 -25 -4 -21 -4 -23 6 -5 24 10 11 10 13 0 7 -7
-4 -13 -2 -13 3 0 6 5 11 11 11 5 0 7 5 3 12 -4 6 -3 8 4 4 6 -3 14 -1 17 5 4
5 9 8 12 5 3 -3 0 -13 -8 -23z m18 -67 c0 -8 -12 -13 -31 -14 l-31 -1 25 14
c32 18 37 18 37 1z"/>
<path d="M4687 1883 c-3 -5 17 -7 44 -6 40 1 52 -3 64 -20 8 -11 17 -18 20
-15 4 3 -4 15 -16 27 -23 21 -102 30 -112 14z"/>
<path d="M4253 1865 c-38 -27 -47 -54 -27 -76 21 -23 37 -24 55 -2 13 15 12
15 -8 5 -29 -16 -36 -15 -29 4 3 8 2 12 -4 9 -6 -3 -10 0 -10 8 0 23 11 27 36
10 14 -9 27 -13 31 -10 3 4 -2 9 -11 13 -39 15 -10 44 44 44 34 0 44 -21 31
-65 -4 -17 -6 -35 -4 -41 4 -13 -28 -24 -68 -24 -14 0 -34 -7 -45 -15 -18 -13
-18 -14 5 -8 22 6 23 4 17 -36 -3 -22 -1 -52 3 -64 7 -18 6 -24 -5 -24 -8 0
-14 4 -14 8 0 3 -10 9 -21 12 -19 5 -21 11 -15 49 5 40 5 42 -8 18 -17 -29 -8
-58 25 -82 43 -31 73 -32 105 -4 28 24 29 24 49 6 33 -31 70 -35 93 -10 22 24
36 90 22 104 -7 7 -10 -6 -10 -36 0 -56 -24 -84 -46 -53 -10 14 -13 43 -10
110 3 62 -1 101 -10 123 -14 35 -23 39 -43 20 -10 -11 -12 -10 -9 2 5 22 -89
26 -119 5z m150 -42 c-4 -11 -3 -14 5 -9 7 4 12 2 12 -3 0 -6 -4 -11 -10 -11
-5 0 -10 -4 -10 -10 0 -5 7 -7 16 -3 13 5 15 2 9 -18 -4 -13 -13 -27 -19 -31
-7 -5 -7 -8 0 -8 13 0 12 -72 -1 -82 -6 -5 -5 -8 3 -8 14 0 17 -36 3 -44 -22
-14 -36 33 -17 62 4 7 5 19 2 27 -2 7 0 16 7 19 7 3 2 3 -10 0 -21 -5 -21 -2
-18 60 1 35 6 69 10 75 10 17 25 3 18 -16z m-44 -140 c-1 -62 -18 -93 -50 -93
-20 0 -29 21 -31 73 -2 45 19 67 74 76 4 0 7 -25 7 -56z m31 -14 c0 -5 -4 -9
-8 -9 -5 0 -9 7 -9 15 0 8 4 12 9 9 4 -3 8 -9 8 -15z"/>
<path d="M4748 1825 c2 -25 7 -43 12 -40 9 5 3 66 -8 77 -4 4 -5 -13 -4 -37z"/>
<path d="M3931 1844 c0 -11 3 -14 6 -6 3 7 2 16 -1 19 -3 4 -6 -2 -5 -13z"/>
<path d="M1730 1830 c-16 -16 -18 -25 -10 -40 19 -35 40 -24 40 20 0 46 -3 47
-30 20z"/>
<path d="M4783 1825 c0 -7 6 -11 12 -8 9 3 13 -13 13 -57 0 -50 -4 -63 -21
-75 -28 -19 -35 -10 -12 15 18 20 18 21 -1 14 -17 -7 -18 -6 -4 11 9 11 10 16
3 11 -8 -4 -13 -2 -13 6 0 8 6 20 13 27 10 10 9 11 -5 6 -18 -7 -21 -24 -18
-101 1 -27 -4 -47 -15 -58 -15 -15 -10 -16 67 -15 46 1 72 4 58 6 -14 3 -28
10 -33 17 -4 6 -7 53 -6 105 2 86 0 95 -18 102 -13 5 -20 3 -20 -6z m22 -152
c-1 -10 2 -28 6 -40 6 -17 5 -23 -6 -23 -8 0 -15 5 -15 12 0 9 -3 9 -12 0 -20
-20 -32 -13 -13 8 14 15 15 20 4 20 -8 0 -4 8 11 20 31 24 29 24 25 3z"/>
<path d="M3010 1814 c-19 -22 -22 -64 -4 -57 7 3 12 9 9 13 -7 11 5 41 14 35
4 -2 8 2 8 10 0 19 -11 19 -27 -1z"/>
<path d="M3199 1813 c-1 -10 0 -22 1 -28 6 -33 5 -62 -3 -72 -6 -8 -6 -13 0
-13 5 0 8 -13 5 -30 -5 -34 0 -37 19 -13 10 11 10 14 2 9 -7 -4 -13 -3 -13 3
0 5 6 12 13 14 9 4 9 7 0 14 -13 9 -13 30 0 51 5 6 4 12 -1 12 -5 0 -9 16 -7
35 1 19 -2 35 -7 35 -4 0 -9 -8 -9 -17z"/>
<path d="M1511 1762 c-11 -21 3 -52 24 -52 10 0 15 11 15 35 0 39 -22 48 -39
17z"/>
<path d="M2928 1748 c-3 -16 -2 -28 3 -28 4 0 6 -8 4 -17 -2 -10 -4 -21 -4
-25 -1 -5 -6 -8 -12 -8 -6 0 -8 9 -4 23 5 15 0 11 -17 -13 -13 -19 -38 -44
-55 -56 l-32 -22 37 -1 c20 -1 51 -3 67 -4 30 -2 30 -1 33 55 2 31 -1 71 -6
90 l-8 33 -6 -27z m10 -116 c3 -20 -1 -22 -42 -21 l-45 2 25 19 c13 11 29 16
35 12 8 -5 9 -3 4 6 -5 8 -3 11 6 8 8 -3 15 -14 17 -26z"/>
<path d="M3069 1763 c-1 -5 -2 -12 -4 -18 -1 -5 -3 -16 -3 -22 -1 -7 -5 -12
-9 -11 -5 1 -18 -3 -30 -10 -20 -11 -22 -10 -26 16 l-4 27 -2 -29 c-2 -42 44
-99 72 -91 16 5 18 4 8 -3 -11 -8 -10 -12 7 -21 24 -13 92 -15 92 -3 0 5 -13
7 -28 4 -43 -6 -60 18 -60 81 1 30 -2 59 -6 65 -3 6 0 13 6 15 10 4 10 6 1 6
-7 1 -14 -2 -14 -6z m-9 -78 c0 -7 -8 -19 -17 -25 -15 -9 -14 -10 6 -4 16 4
21 3 17 -5 -11 -17 -34 -13 -45 7 -7 13 -6 23 1 30 17 17 38 15 38 -3z"/>
<path d="M3025 1680 c-3 -6 1 -7 9 -4 18 7 21 14 7 14 -6 0 -13 -4 -16 -10z"/>
<path d="M1646 1724 c-21 -21 -20 -41 3 -54 29 -15 31 -13 31 30 0 43 -9 49
-34 24z"/>
<path d="M4001 1672 c-1 -29 3 -51 8 -48 4 3 6 17 3 31 -3 17 0 25 9 25 9 0
10 3 3 8 -6 4 -14 14 -17 22 -3 8 -6 -9 -6 -38z"/>
<path d="M3565 1698 c-2 -7 -6 -26 -8 -43 l-5 -30 19 24 c20 25 26 61 9 61 -6
0 -12 -6 -15 -12z"/>
<path d="M3236 1645 c-9 -14 -26 -25 -37 -25 -12 0 -17 -4 -14 -11 5 -7 14 -6
28 4 20 13 54 57 44 57 -2 0 -12 -11 -21 -25z"/>
<path d="M3516 1605 c-11 -8 -16 -15 -10 -15 5 0 18 7 28 15 11 8 16 15 10 15
-5 0 -18 -7 -28 -15z"/>
<path d="M3760 1600 c0 -5 4 -10 9 -10 6 0 13 5 16 10 3 6 -1 10 -9 10 -9 0
-16 -4 -16 -10z"/>
<path d="M2748 1593 c7 -3 16 -2 19 1 4 3 -2 6 -13 5 -11 0 -14 -3 -6 -6z"/>
</g>
</svg>
